<svg xmlns="http://www.w3.org/2000/svg" xmlns:xlink="http://www.w3.org/1999/xlink" width="402.203" height="442.855" viewBox="0 0 402.203 442.855">
  <defs>
    <linearGradient id="linear-gradient" x1="-7.134" y1="6.36" x2="26.035" y2="-19.46" gradientUnits="objectBoundingBox">
      <stop offset="0.12" stop-color="#5758e0"/>
      <stop offset="0.95" stop-color="#03e8e8"/>
    </linearGradient>
  </defs>
  <g id="PowerPay_Logo_Template_2_" data-name="PowerPay Logo Template (2)" transform="translate(0)">
    <path id="Path_71" data-name="Path 71" d="M486.164,134.57H299.831a40.9,40.9,0,0,0-40.9,40.9V536.524a40.9,40.9,0,0,0,40.9,40.9h0a100.667,100.667,0,0,0,96.919-73.394L427.529,394.65a5.807,5.807,0,0,0-5.807-7.618h-78.18a5.807,5.807,0,0,1-5.308-8.118l72.061-165.29a5.87,5.87,0,0,1,5.37-3.5h89.358a5.808,5.808,0,0,1,5.37,8.118l-43.274,99.162a5.87,5.87,0,0,0,5.37,8.118h81.552a5.807,5.807,0,0,1,4.184,9.866L434.211,464.4a11.677,11.677,0,0,0,8.368,19.795h43.711A174.844,174.844,0,0,0,661.133,309.352h0A174.844,174.844,0,0,0,486.164,134.57Z" transform="translate(-258.93 -134.57)" fill="#6c63ff"/>
    <path id="Path_72" data-name="Path 72" d="M396.5,175h-78.18l36.53,15.673a18.733,18.733,0,0,1,10.74,22.417l-22.23,78.742a100.6,100.6,0,0,1-79.616,71.873,41.164,41.164,0,0,0,10.865,1.5,100.66,100.66,0,0,0,96.913-73.185l7.369-26.164,4.559-16.3,18.733-66.94A5.808,5.808,0,0,0,396.5,175Z" transform="translate(-233.704 77.46)" opacity="0.1" fill="url(#linear-gradient)"/>
  </g>
</svg>
