<svg xmlns="http://www.w3.org/2000/svg" width="64.357" height="70.862" viewBox="0 0 64.357 70.862">
  <g id="PowerPay_Logo_Template_2_" data-name="PowerPay Logo Template (2)" transform="translate(-1 15)">
    <path id="Path_71" data-name="Path 71" d="M295.29,134.57H265.475a6.545,6.545,0,0,0-6.545,6.545v57.773a6.545,6.545,0,0,0,6.545,6.545h0a16.108,16.108,0,0,0,15.508-11.744l4.925-17.5a.929.929,0,0,0-.929-1.219h-12.51a.929.929,0,0,1-.849-1.3L283.15,147.22a.939.939,0,0,1,.859-.56h14.3a.929.929,0,0,1,.859,1.3l-6.924,15.867a.939.939,0,0,0,.859,1.3h13.049a.929.929,0,0,1,.669,1.579l-19.844,20.643a1.868,1.868,0,0,0,1.339,3.167h6.994a27.977,27.977,0,0,0,27.977-27.977h0A27.977,27.977,0,0,0,295.29,134.57Z" transform="translate(-257.93 -149.57)" fill="#fff"/>
  </g>
</svg>
